# xmcd
#
# Track frame offsets:
#	150
#	13294
#	28414
#	41551
#	57160
#	67310
#	81714
#	95136
#	110838
#	124753
#	139035
#	152964
#
# Disc length: 2207 seconds
#
# Revision: 0
# Processed by: cddbd v1.5.2PL0 Copyright (c) Steve Scherf et al.
# Submitted via: EasyCDDAExtractor 16.0.6.1
#
DISCID=bd089d0c
DTITLE=Μοσχολιού Βίκυ - Η Β. Μοσχολιού τραγουδάει αρχοντορεμπέτικα
DYEAR=1996
DGENRE=Αρχοντορεμπέτικη
TTITLE0=Χειμώνιασε χειμώνιασε[Μουζάκη-Ασημακόπουλου/Σπυρ)λου/Παπαδούκα]
TTITLE1=Το κομπολόϊ [Ιωσήφ Ριτσιάρδη-Δημήτρη Γιαννουκάκη]
TTITLE2=Πού θα με πας [ΓΜουζάκη-ΓΑσημακόπουλου/ΒΣπυρ)λου/ΠΠαπαδούκα]
TTITLE3=Η μοδιστρούλα [Νίκου Χατζηαποστόλου]
TTITLE4=Αγαπούλα μου οκ [Μανώλη Χιώτη-Χαράλαμπου Βασιλειάδη]
TTITLE5=Εγώ το πίνω [Ερμή Πόγκη-Τίμου Μωραϊτίνη]
TTITLE6=Έλα έλα [Νίκου Γούναρη-Χαράλαμπου Βασιλειάδη]
TTITLE7=Σαν όνειρο μαγευτικό [Νίκου Χατζηαποστόλου]
TTITLE8=Βαγγελίτσα [ΘΠαπαδόπουλου/Κώστα Κιούση-Σώτα Πέτρα]
TTITLE9=Παράβλεψε λιγάκι [Κορώνη/Φίλανδρου-Κώστα Μάνεση]
TTITLE10=Ο καφές [Μιχάλη Σουγιούλ]
TTITLE11=Αλανάκι [Ζάχου Θάνου]
EXTD=
EXTT0=
EXTT1=
EXTT2=
EXTT3=
EXTT4=
EXTT5=
EXTT6=
EXTT7=
EXTT8=
EXTT9=
EXTT10=
EXTT11=
PLAYORDER=
